# xmcd
#
# Track frame offsets:
#	150
#	17662
#	34649
#	45958
#	59769
#	74891
#	86785
#	99957
#	114429
#	130507
#	143409
#	156492
#	169270
#	180090
#	193822
#	206894
#	228182
#	238857
#	250158
#	260345
#	270878
#
# Disc length: 3757 seconds
#
# Revision: 2
# Processed by: cddbd v1.5.1PL0 Copyright (c) Steve Scherf et al.
# Submitted via: audiograbber 1.80
#
DISCID=1e0eab15
DTITLE=Marks and Spencer - Easy Listening CD 3
DYEAR=1900
DGENRE=
TTITLE0=Dobie Grey - Drift Away
TTITLE1=John Barry - Midnight Cowboy
TTITLE2=Johnny Mann Singers - Up Up And Away
TTITLE3=Glen Campbell - Witchita Lineman
TTITLE4=Gallagher and Lyle - Heart On My Sleeve
TTITLE5=The Platters - Smoke Gets In Your Eyes
TTITLE6=Acker Bilk - Stranger On The Shore
TTITLE7=Aphrodites - Rain and Tears
TTITLE8=Rita Coolidge - We're All Alone
TTITLE9=Bobbie Gentry - I'll Never Fall In Love Again
TTITLE10=John Barry - The Girl With The Sun In Her Hair
TTITLE11=Julie London - Cry Me A River
TTITLE12=Percy Faith and His Orchestra - Theme from 'A Summer Place'
TTITLE13=Johnny Mathis - Chances Are
TTITLE14=Mel Torme - I've Got You Under My Skin
TTITLE15=Peter Sarstedt - Where Do You Go To My Lovely
TTITLE16=Fleetwoods - Come Softly To Me
TTITLE17=Nelson Riddle - Let's Face The Music And Dance
TTITLE18=Dinah Washington - Call Me Irresponsible
TTITLE19=Michael Legrand - La Vie En Rose
TTITLE20=Bing Crosby - The Best Things In Life Are Free
EXTD=
EXTT0=
EXTT1=
EXTT2=
EXTT3=
EXTT4=
EXTT5=
EXTT6=
EXTT7=
EXTT8=
EXTT9=
EXTT10=
EXTT11=
EXTT12=
EXTT13=
EXTT14=
EXTT15=
EXTT16=
EXTT17=
EXTT18=
EXTT19=
EXTT20=
PLAYORDER=
